# xmcd
#
# Track frame offsets: 
#        150
#        12957
#        31560
#        46665
#        58537
#        80265
#        97202
#        112307
#        126657
#        141245
#
# Disc length: 2148 seconds
#
# Revision: 12
# Processed by: cddbd v1.5.2PL0 Copyright (c) Steve Scherf et al.
# Submitted via: ExactAudioCopyFreeDBPlugin 1.0
#
DISCID=8508620a
DTITLE=Robert Cray - Who's Been Talkin'
DYEAR=1978
DGENRE=Blues
TTITLE0=Too Many Cooks
TTITLE1=The Score
TTITLE2=When The Welfare Turns Its Back On You
TTITLE3=That's What I'll Do
TTITLE4=I'd Rather Be A Wino
TTITLE5=Who's Been Talkin'
TTITLE6=Sleeping In The Ground
TTITLE7=I'm Gonna Forget About You
TTITLE8=Nice As A Fool Can Be
TTITLE9=If You're Thinkin' What I'm Thinkin'
EXTD=
EXTT0=
EXTT1=
EXTT2=
EXTT3=
EXTT4=
EXTT5=
EXTT6=
EXTT7=
EXTT8=
EXTT9=
PLAYORDER=
